<?xml version="1.0" encoding="UTF-8" standalone="no"?>
<svg
   xmlns:dc="http://purl.org/dc/elements/1.1/"
   xmlns:cc="http://creativecommons.org/ns#"
   xmlns:rdf="http://www.w3.org/1999/02/22-rdf-syntax-ns#"
   xmlns:svg="http://www.w3.org/2000/svg"
   xmlns="http://www.w3.org/2000/svg"
   xmlns:sodipodi="http://sodipodi.sourceforge.net/DTD/sodipodi-0.dtd"
   xmlns:inkscape="http://www.inkscape.org/namespaces/inkscape"
   width="121mm"
   height="18mm"
   viewBox="0 0 121 18"
   version="1.1"
   id="svg8"
   inkscape:version="1.0.1 (3bc2e813f5, 2020-09-07)"
   sodipodi:docname="dashboard_logo.svg">
  <defs
     id="defs2" />
  <sodipodi:namedview
     id="base"
     pagecolor="#ffffff"
     bordercolor="#666666"
     borderopacity="1.0"
     inkscape:pageopacity="0.0"
     inkscape:pageshadow="2"
     inkscape:zoom="1.979899"
     inkscape:cx="99.087913"
     inkscape:cy="48.846741"
     inkscape:document-units="mm"
     inkscape:current-layer="layer1-8"
     showgrid="false"
     inkscape:window-width="2256"
     inkscape:window-height="1398"
     inkscape:window-x="-11"
     inkscape:window-y="-11"
     inkscape:window-maximized="1"
     inkscape:document-rotation="0" />
  <metadata
     id="metadata5">
    <rdf:RDF>
      <cc:Work
         rdf:about="">
        <dc:format>image/svg+xml</dc:format>
        <dc:type
           rdf:resource="http://purl.org/dc/dcmitype/StillImage" />
        <dc:title></dc:title>
      </cc:Work>
    </rdf:RDF>
  </metadata>
  <g
     inkscape:label="Ebene 1"
     inkscape:groupmode="layer"
     id="layer1"
     transform="translate(0,-279)">
    <g
       transform="translate(4.9606174,-263.97744)"
       id="layer1-8"
       inkscape:label="Ebene 1">
      <text
         id="text4531"
         y="620.67676"
         x="47.765583"
         style="font-style:normal;font-variant:normal;font-weight:normal;font-stretch:normal;font-size:13.2558px;line-height:1.25;font-family:arial;-inkscape-font-specification:arial;letter-spacing:0px;word-spacing:0px;fill:#828282;fill-opacity:1;stroke:none;stroke-width:0.331394"
         xml:space="preserve"
         transform="scale(1.1094771,0.9013255)"><tspan
           style="font-style:italic;font-variant:normal;font-weight:bold;font-stretch:condensed;font-family:arial;-inkscape-font-specification:'arial Bold Italic Condensed';fill:#828282;fill-opacity:1;stroke-width:0.331394"
           y="620.67676"
           x="47.765583"
           id="tspan4529"
           sodipodi:role="line">BOARD</tspan></text>
      <path
         style="fill:#008de4;fill-opacity:1;stroke-width:0.163475"
         d="m -1.2967404,559.1755 c 3.88e-5,-0.39535 0.47033849,-2.81872 0.58212519,-2.9996 0.050069,-0.081 1.77591461,-0.14731 3.83520031,-0.14731 3.3738989,0 3.8327009,-0.0331 4.6395429,-0.33501 1.499128,-0.56089 2.161654,-1.54755 2.646759,-3.94165 0.432682,-2.13537 0.06481,-3.29506 -1.227802,-3.87046 -0.469169,-0.20885 -1.374948,-0.27288 -4.556145,-0.32207 -3.6041895,-0.0557 -3.96322061,-0.0864 -3.89102431,-0.33255 0.043743,-0.14913 0.1607324,-0.74932 0.2599726,-1.33374 0.099241,-0.58443 0.22026331,-1.19733 0.26894021,-1.362 0.083591,-0.28279 0.3395017,-0.29607 4.6097025,-0.23922 4.172113,0.0555 4.588822,0.0874 5.397027,0.41299 0.481705,0.19404 1.108459,0.5122 1.392785,0.70703 1.297639,0.88915 2.015292,2.78138 1.840672,4.85326 -0.456908,5.42129 -2.96271,8.55736 -7.21532,9.03015 -0.809203,0.09 -3.071296,0.16418 -5.0268715,0.16492 -3.2778156,8.6e-4 -3.5555898,-0.021 -3.5555639,-0.28474 z m 20.0843344,0.11946 c -1.612365,-0.27232 -2.895268,-1.31395 -3.256542,-2.64407 -0.264834,-0.97506 -0.101751,-3.11418 0.322941,-4.23597 0.735723,-1.94336 1.812423,-3.07076 3.602806,-3.77247 0.818272,-0.32071 1.288018,-0.36228 4.804952,-0.42529 2.143909,-0.0384 3.958148,-0.007 4.031642,0.07 0.07349,0.0769 -0.299582,2.56745 -0.829057,5.53452 -0.529474,2.96709 -0.964387,5.44987 -0.966475,5.51731 -0.0049,0.1605 -6.726548,0.12213 -7.710267,-0.0439 z m 4.748106,-5.02373 c 0.207366,-1.23628 0.415295,-2.4501 0.462065,-2.69735 l 0.08504,-0.44955 -1.123894,6.2e-4 c -1.558416,8.6e-4 -2.217771,0.22182 -2.891109,0.96713 -0.988949,1.09464 -1.198581,3.15418 -0.396334,3.89375 0.464071,0.42781 0.739637,0.49066 2.253213,0.51393 l 1.233993,0.019 z m 5.257104,4.83569 c 0.0056,-0.20953 0.101146,-0.85915 0.212449,-1.44358 l 0.202369,-1.06259 3.17596,-0.0817 3.175957,-0.0817 0.161259,-0.45919 c 0.236028,-0.67209 -0.03037,-0.76147 -2.279022,-0.76463 -2.246832,-0.003 -2.84828,-0.20107 -3.484541,-1.14657 -0.332277,-0.49379 -0.377313,-0.72994 -0.328731,-1.72373 0.101425,-2.07483 1.277751,-3.59665 3.07865,-3.98287 0.929383,-0.19931 7.355396,-0.24817 7.355352,-0.0559 -1.6e-5,0.0675 -0.110362,0.69921 -0.245213,1.40393 -0.134853,0.70472 -0.245186,1.31162 -0.245186,1.34867 0,0.0371 -1.362511,0.0674 -3.027801,0.0674 h -3.027802 l -0.184005,0.40384 c -0.34901,0.76599 -0.01134,0.90393 2.213606,0.90421 2.269335,3e-4 2.865474,0.19477 3.507071,1.14408 0.342326,0.50651 0.378635,0.71286 0.316423,1.79822 -0.106418,1.85659 -0.856956,3.05 -2.331362,3.70705 -0.551953,0.24597 -1.246474,0.30035 -4.454707,0.34879 l -3.800806,0.0574 0.01009,-0.38099 z m 11.596681,0.22915 c 0,-0.069 0.588511,-3.45632 1.307804,-7.52732 0.719292,-4.07099 1.307804,-7.43524 1.307804,-7.47609 0,-0.0409 0.845986,-0.0743 1.879968,-0.0743 2.193699,0 2.040725,-0.22368 1.579192,2.30903 l -0.286718,1.57339 2.051109,0.0782 c 2.088556,0.0795 2.976098,0.2999 3.662095,0.90905 0.471644,0.4188 0.915236,1.50252 0.91929,2.24584 0.0031,0.57966 -0.676607,4.83133 -1.155874,7.2295 l -0.171519,0.85825 H 49.61426 c -1.417839,0 -1.868377,-0.0509 -1.868377,-0.21115 0,-0.11613 0.257474,-1.66074 0.572164,-3.43246 0.651371,-3.66724 0.654191,-3.70148 0.340356,-4.1311 -0.18854,-0.25809 -0.49371,-0.33258 -1.634941,-0.39906 -0.771724,-0.045 -1.403051,-0.0658 -1.402947,-0.0464 8.03e-4,0.14627 -1.341744,7.71073 -1.40812,7.93413 -0.07453,0.25081 -0.315369,0.28608 -1.953959,0.28608 -1.027922,0 -1.868951,-0.0565 -1.868951,-0.12551 z m -44.4633967,-6.04569 c 0.00603,-0.37977 0.5038829,-1.91999 0.7343176,-2.27168 0.5105503,-0.7792 1.0659444,-0.87523 5.0618721,-0.87523 2.83881,0 3.683004,0.0468 3.681509,0.20434 -0.0011,0.1124 -0.100798,0.57556 -0.221625,1.02927 -0.537937,2.01996 -0.580291,2.0359 -5.40822171,2.0359 -2.11738619,0 -3.84891879,-0.0551 -3.84785199,-0.1226 z"
         id="path4604"
         inkscape:connector-curvature="0" />
    </g>
  </g>
</svg>
